<svg id="visual" viewBox="0 0 1920 1080" width="1920" height="1080" xmlns="http://www.w3.org/2000/svg" xmlns:xlink="http://www.w3.org/1999/xlink" version="1.1"><rect x="0" y="0" width="1920" height="1080" fill="#F9AD66"></rect><path d="M420 0L331 98L321 196L431 295L345 393L290 491L348 589L401 687L336 785L443 884L371 982L379 1080L0 1080L0 982L0 884L0 785L0 687L0 589L0 491L0 393L0 295L0 196L0 98L0 0Z" fill="#f5730a"></path><path d="M337 0L382 98L239 196L230 295L277 393L342 491L359 589L363 687L337 785L247 884L344 982L294 1080L0 1080L0 982L0 884L0 785L0 687L0 589L0 491L0 393L0 295L0 196L0 98L0 0Z" fill="#f68327"></path><path d="M213 0L271 98L301 196L203 295L195 393L201 491L172 589L191 687L183 785L215 884L263 982L215 1080L0 1080L0 982L0 884L0 785L0 687L0 589L0 491L0 393L0 295L0 196L0 98L0 0Z" fill="#f7923d"></path><path d="M165 0L126 98L196 196L161 295L192 393L217 491L113 589L197 687L126 785L192 884L214 982L137 1080L0 1080L0 982L0 884L0 785L0 687L0 589L0 491L0 393L0 295L0 196L0 98L0 0Z" fill="#f8a051"></path><path d="M61 0L67 98L107 196L84 295L113 393L87 491L106 589L104 687L78 785L77 884L96 982L128 1080L0 1080L0 982L0 884L0 785L0 687L0 589L0 491L0 393L0 295L0 196L0 98L0 0Z" fill="#f9ad66"></path></svg>